<svg xmlns="http://www.w3.org/2000/svg" viewBox="0 0 170 108"><path d="M.8.8h168.3v106.4H.8z"/><path d="M47.8 98.3v-6c0-2.3-1.4-3.8-3.7-3.8-1.2 0-2.5.4-3.4 1.7-.7-1.1-1.7-1.7-3.2-1.7-1 0-2.1.3-2.9 1.4v-1.2h-1.9v9.6h1.9v-5.5c0-1.7 1-2.5 2.4-2.5s2.2.9 2.2 2.5v5.5h1.9v-5.5c0-1.7 1-2.5 2.4-2.5s2.2.9 2.2 2.5v5.5h2.1zM79 88.8h-3.5v-2.9h-1.9v2.9h-2v1.7h2V95c0 2.2.8 3.5 3.2 3.5.9 0 1.9-.3 2.6-.7l-.6-1.7c-.6.4-1.3.5-1.8.5-1 0-1.5-.6-1.5-1.6v-4.6H79v-1.6zm17.8-.3c-1.2 0-2.1.6-2.6 1.4v-1.2h-1.9v9.6h1.9v-5.4c0-1.6.8-2.6 2.1-2.6.4 0 .9.1 1.3.2l.6-1.8c-.4-.1-1-.2-1.4-.2zm-26.9 1c-1-.7-2.4-1-3.9-1-2.4 0-3.9 1.1-3.9 3 0 1.6 1.1 2.5 3.2 2.8l1 .1c1.1.2 1.8.6 1.8 1.1 0 .7-.8 1.2-2.3 1.2-1.5 0-2.5-.5-3.2-1l-1 1.5c1.4 1 3.1 1.2 4.1 1.2 2.8 0 4.3-1.3 4.3-3.1 0-1.7-1.2-2.5-3.3-2.8l-1-.1c-.9-.1-1.7-.4-1.7-1 0-.7.8-1.2 1.9-1.2 1.2 0 2.4.5 3 .8l1-1.5zm29 4c0 2.9 1.9 5 5 5 1.4 0 2.4-.3 3.4-1.1l-1-1.5c-.8.6-1.6.9-2.5.9-1.7 0-3-1.3-3-3.2 0-1.9 1.3-3.2 3-3.2.9 0 1.7.3 2.5.9l1-1.5c-1-.8-2-1.1-3.4-1.1-3-.2-5 1.9-5 4.8zm-13.4-5c-2.8 0-4.7 2-4.7 5s2 5 4.9 5c1.4 0 2.8-.4 3.9-1.3l-1-1.4c-.8.6-1.8 1-2.8 1-1.3 0-2.7-.8-2.9-2.5H90v-.8c0-3-1.8-5-4.5-5zm-.1 1.8c1.4 0 2.4.9 2.5 2.4h-5.2c.3-1.4 1.2-2.4 2.7-2.4zm-25.9 3.2v-4.8h-1.9v1.2c-.7-.9-1.7-1.4-3.1-1.4-2.7 0-4.7 2.1-4.7 5s2 5 4.7 5c1.4 0 2.4-.5 3.1-1.4v1.2h1.9v-4.8zm-7.7 0c0-1.8 1.1-3.2 3-3.2 1.8 0 2.9 1.4 2.9 3.2 0 1.9-1.2 3.2-2.9 3.2-1.9.1-3-1.4-3-3.2zm73.9-5c-1.2 0-2.1.6-2.6 1.4v-1.2h-1.9v9.6h1.9v-5.4c0-1.6.8-2.6 2.1-2.6.4 0 .9.1 1.3.2l.6-1.8c-.4-.1-1-.2-1.4-.2zm-7.4 5v-4.8h-1.9v1.2c-.7-.9-1.7-1.4-3.1-1.4-2.7 0-4.7 2.1-4.7 5s2 5 4.7 5c1.4 0 2.4-.5 3.1-1.4v1.2h1.9v-4.8zm-7.7 0c0-1.8 1.1-3.2 3-3.2 1.8 0 2.9 1.4 2.9 3.2 0 1.9-1.2 3.2-2.9 3.2-1.9.1-3-1.4-3-3.2zm27 0v-8.6h-1.9v5c-.7-.9-1.7-1.4-3.1-1.4-2.7 0-4.7 2.1-4.7 5s2 5 4.7 5c1.4 0 2.4-.5 3.1-1.4v1.2h1.9v-4.8zm-7.7 0c0-1.8 1.1-3.2 3-3.2 1.8 0 2.9 1.4 2.9 3.2 0 1.9-1.2 3.2-2.9 3.2-1.9.1-3-1.4-3-3.2z" fill="#FFF"/><path fill="#FF5F00" d="M67.7 15.9h34.7v56.6H67.7z"/><path d="M71.2 44.2c0-11.5 5.4-21.7 13.7-28.3-6.1-4.8-13.8-7.7-22.2-7.7-19.9 0-36 16.1-36 36s16.1 36 36 36c8.4 0 16.1-2.9 22.2-7.7-8.3-6.6-13.7-16.8-13.7-28.3z" fill="#EB001B"/><path d="M143.2 44.2c0 19.9-16.1 36-36 36-8.4 0-16.1-2.9-22.2-7.7 8.4-6.6 13.7-16.8 13.7-28.3S93.3 22.5 85 15.9c6.1-4.8 13.8-7.7 22.2-7.7 19.9 0 36 16.1 36 36z" fill="#F79E1B"/></svg>