<svg width="122" height="38" viewBox="0 0 122 38" xmlns="http://www.w3.org/2000/svg"><title>2F478B0A-4A72-4890-B360-BDF3740AFC0F</title><g fill="none" fill-rule="evenodd"><path d="M40.266-.008c-1.666 0-3.281.383-4.798 1.097-2.167 1.026-4.132 2.737-5.736 5.008-1.042 1.474-1.934 3.183-2.633 5.094-1.317 3.607-1.302 6.533.044 8.462.764 1.09 2.35 2.392 5.578 2.395h.012c5.878 0 10.266-3.852 13.045-11.451.734-2.01 1.702-5.763-.068-8.295-1.069-1.53-2.898-2.308-5.444-2.31zm35.467 0c-1.665 0-3.281.383-4.797 1.097-2.168 1.026-4.131 2.737-5.735 5.008-1.044 1.474-1.935 3.183-2.633 5.094-1.319 3.607-1.303 6.533.045 8.462.762 1.09 2.348 2.392 5.577 2.395h.01c5.88 0 10.269-3.852 13.045-11.451.736-2.01 1.702-5.763-.066-8.295-1.07-1.53-2.9-2.308-5.446-2.31zM21.388.298c-1.934 0-3.813 0-5.497.854-1.683.854-3.17 2.564-4.314 5.983-.248.735-.379 1.369-.396 1.919-.017.55.079 1.02.287 1.427.258.497.675.965 1.197 1.359a5.878 5.878 0 0 0 1.821.92l.81.231c.427.123.926.27 1.243.366.185.056.389.13.573.242.185.109.35.256.455.46.069.135.106.284.11.442a1.44 1.44 0 0 1-.085.513c-.157.464-.396.764-.85.946-.451.183-1.118.242-2.13.25H1.989l-1.996 5.482h13.514c1.271 0 3.596 0 5.83-.95 2.234-.948 4.377-2.845 5.284-6.641.341-1.426.236-2.589-.323-3.502-.56-.912-1.575-1.575-3.051-1.998l-.72-.208-1.062-.305c-.378-.108-.67-.327-.841-.605a1.19 1.19 0 0 1-.125-.96c.102-.359.347-.645.7-.842.356-.197.823-.305 1.368-.305h7.855c.055-.08.106-.166.161-.246 1.435-2.03 3.172-3.673 5.074-4.832H21.388zm35.308 0c-3.496 0-6.098 1.768-7.327 5.078l-5.938 16.316h6.505l3.052-8.387 5.749.004 1.636-4.492-5.73-.004.922-2.6c.192-.467.652-.838 1.324-.838.375 0 4.596.001 6.78.003.056-.081.106-.168.161-.248C65.265 3.1 67.297 1.457 69.2.298H56.696zm30.179.011l-7.79 21.396h6.617l2.831-7.53c.139.31 1.81 7.53 1.81 7.53h6.956s-1.265-5.306-2.195-7.449c-.24-.55-.49-1.168-.823-1.685 1.965-.73 4.813-2.298 5.992-5.474.724-1.953.683-3.531-.122-4.689C99.175 1.003 97.189.313 94.077.31h-7.202zm13.572 0c.419.332.78.71 1.08 1.142.77 1.11 1.064 2.428.889 3.939h3.94l-5.938 16.32h5.933l5.942-16.32h7.623l1.85-5.08h-21.319zm-9.212 4.418h1.092c1.997.001 2.742.585 2.066 2.408-.635 1.71-1.776 2.768-3.946 2.768h-.009l-1.123-.001 1.92-5.175zm-52.53.106c2.033.002 2.498 1.18.714 6.063-1.834 5.02-3.165 6.282-5.168 6.282h-.004c-1.951-.001-2.636-1.236-.81-6.232 1.364-3.728 3.13-6.113 5.267-6.113zm35.467 0h.002c2.031.002 2.498 1.18.712 6.063-1.833 5.02-3.164 6.282-5.166 6.282h-.005c-1.953-.001-2.634-1.236-.81-6.232 1.363-3.728 3.13-6.113 5.267-6.113z" fill="#EE7F00"/><path d="M6.422 23.8c-.416 0-.728.076-.936.224-.208.153-.382.422-.523.81-.136.374-.157.633-.062.78.094.148.35.222.772.222.421 0 .735-.076.941-.23.206-.154.38-.422.518-.805.137-.378.16-.638.067-.784-.09-.145-.35-.217-.777-.217zm3.585 0c-.422 0-.734.076-.94.224-.205.153-.378.422-.52.81-.134.374-.156.633-.066.78.092.148.348.222.77.222.42 0 .734-.076.944-.23.209-.154.383-.422.522-.805.138-.378.159-.638.064-.784-.095-.145-.353-.217-.774-.217zm66.933 2.783c-.488 0-.971.063-1.452.188a4.731 4.731 0 0 0-2.452 1.53 4.353 4.353 0 0 0-.77 1.344c-.163.444-.235.823-.219 1.14a1.9 1.9 0 0 0 .212.826c.125.233.292.432.5.599.208.167.429.316.665.446.237.132.468.258.695.375.224.118.418.243.579.378.163.134.277.287.346.459.068.173.059.38-.028.62a1.943 1.943 0 0 1-.809.993 2.362 2.362 0 0 1-.627.267c-.23.063-.477.095-.74.095-.4 0-.734-.046-1.004-.136a3.306 3.306 0 0 1-1.102-.6c-.108-.089-.2-.134-.277-.134a.312.312 0 0 0-.16.045.505.505 0 0 0-.153.15c-.05.072-.102.165-.154.28a5.228 5.228 0 0 0-.172.427 3.101 3.101 0 0 0-.166.579c-.02.134-.004.237.04.308a.987.987 0 0 0 .26.247c.126.092.295.181.505.266.21.085.461.157.753.218.293.06.623.09.99.09.541 0 1.076-.072 1.604-.213a5.558 5.558 0 0 0 1.478-.637 5.166 5.166 0 0 0 1.229-1.055 4.7 4.7 0 0 0 .846-1.469c.155-.427.225-.798.208-1.112a1.886 1.886 0 0 0-.219-.82 1.968 1.968 0 0 0-.512-.601 5.183 5.183 0 0 0-.675-.447 24.24 24.24 0 0 0-.7-.373 3.49 3.49 0 0 1-.597-.378 1.088 1.088 0 0 1-.35-.46c-.066-.171-.056-.376.03-.612a1.683 1.683 0 0 1 .645-.816c.155-.1.329-.18.525-.238.197-.058.413-.086.648-.086.3 0 .564.036.789.11.224.074.415.155.574.247.158.09.29.173.392.25.104.078.187.115.246.115a.275.275 0 0 0 .162-.05.537.537 0 0 0 .14-.155c.044-.071.089-.162.138-.272a6.854 6.854 0 0 0 .28-.758 1.8 1.8 0 0 0 .059-.238.611.611 0 0 0 .006-.152.391.391 0 0 0-.06-.14c-.035-.054-.122-.123-.262-.205a2.765 2.765 0 0 0-.503-.222 4.52 4.52 0 0 0-1.381-.212zm34.07.007c-.836 0-1.641.13-2.416.387a7.695 7.695 0 0 0-2.15 1.112 8.412 8.412 0 0 0-1.757 1.765 9.216 9.216 0 0 0-1.247 2.344c-.305.842-.457 1.597-.451 2.261.002.665.153 1.23.449 1.692.297.462.736.814 1.318 1.059.58.243 1.296.364 2.143.364a9.719 9.719 0 0 0 1.78-.163c.302-.055.597-.12.887-.198.291-.077.538-.15.741-.22a1.04 1.04 0 0 0 .46-.293c.1-.122.183-.266.242-.43l1.538-4.228a.979.979 0 0 0 .064-.292.43.43 0 0 0-.04-.217.298.298 0 0 0-.13-.135.46.46 0 0 0-.218-.047h-3.585a.277.277 0 0 0-.147.047.597.597 0 0 0-.15.14c-.05.062-.1.145-.152.25a3.693 3.693 0 0 0-.161.384c-.108.297-.157.506-.147.629.01.124.065.185.163.185h2.01l-.896 2.462a3.716 3.716 0 0 1-1.49.33c-.492 0-.913-.08-1.263-.239a1.665 1.665 0 0 1-.789-.707c-.176-.31-.26-.698-.255-1.16.008-.462.122-.999.342-1.605a6.316 6.316 0 0 1 .79-1.515 5.65 5.65 0 0 1 1.107-1.174 4.962 4.962 0 0 1 1.342-.755 4.29 4.29 0 0 1 1.492-.266c.48 0 .885.049 1.214.147.326.098.601.206.823.32a3.3 3.3 0 0 1 .514.32c.123.099.22.148.292.148a.274.274 0 0 0 .141-.04.545.545 0 0 0 .144-.145c.049-.068.1-.16.156-.276.056-.114.112-.25.17-.41.1-.273.158-.48.176-.62a.5.5 0 0 0-.041-.323c-.047-.078-.144-.167-.29-.272a2.607 2.607 0 0 0-.598-.29 5.388 5.388 0 0 0-.904-.23 6.947 6.947 0 0 0-1.22-.096zm-67.07.131c-.28 0-.499.008-.66.022a.8.8 0 0 0-.376.111.459.459 0 0 0-.188.259 2.622 2.622 0 0 0-.087.464l-.96 9.267a.903.903 0 0 0 .008.316c.021.079.079.14.173.18.095.041.233.07.417.083.184.013.435.02.751.02.302 0 .546-.007.734-.02.187-.014.344-.043.467-.087a.779.779 0 0 0 .3-.184c.078-.079.154-.182.228-.308l4.056-6.731h.016l-.75 6.73a.797.797 0 0 0 0 .317c.02.079.078.14.172.18.095.041.233.07.417.083.184.013.432.02.744.02.278 0 .511-.007.696-.02.186-.014.344-.042.473-.082a.853.853 0 0 0 .324-.18c.087-.08.171-.185.251-.317l5.799-9.243a4.3 4.3 0 0 0 .261-.48c.05-.119.056-.207.018-.267-.039-.06-.12-.097-.25-.11a5.273 5.273 0 0 0-.554-.023c-.258 0-.46.008-.608.022a1.31 1.31 0 0 0-.355.074.493.493 0 0 0-.209.147c-.05.064-.1.139-.148.226l-4.813 8.11h-.015l.936-8.078a.77.77 0 0 0 .005-.263.224.224 0 0 0-.13-.15.951.951 0 0 0-.334-.07 9.035 9.035 0 0 0-.622-.018 6.76 6.76 0 0 0-.599.022 1.49 1.49 0 0 0-.375.074.575.575 0 0 0-.236.151c-.06.066-.119.152-.179.254l-4.874 8.079h-.008l1.097-8.135a.769.769 0 0 0 .021-.242c-.006-.058-.041-.102-.107-.131a.945.945 0 0 0-.32-.058 10.46 10.46 0 0 0-.607-.014zm25.603.001a4.83 4.83 0 0 0-.526.024c-.143.018-.262.04-.356.067a.58.58 0 0 0-.22.107.37.37 0 0 0-.108.147l-3.648 10.031a.19.19 0 0 0 0 .15c.019.042.064.078.136.105.074.028.176.05.31.066.132.016.304.024.51.024.214 0 .392-.008.536-.024.142-.016.26-.038.35-.066a.608.608 0 0 0 .218-.106.358.358 0 0 0 .105-.149l3.65-10.031a.186.186 0 0 0 0-.147c-.019-.044-.065-.08-.138-.107a1.424 1.424 0 0 0-.302-.067 4.45 4.45 0 0 0-.517-.024zm-65.636 0a4.94 4.94 0 0 0-.535.025 2.49 2.49 0 0 0-.356.066.53.53 0 0 0-.214.107.366.366 0 0 0-.105.147L.348 33.528c-.246.679-.365 1.27-.355 1.776.01.507.136.93.38 1.268.243.34.6.593 1.07.76.468.167 1.037.25 1.705.25.711 0 1.373-.093 1.988-.278a5.74 5.74 0 0 0 1.673-.813c.502-.354.942-.79 1.32-1.306.38-.514.687-1.096.924-1.748l2.317-6.37a.198.198 0 0 0 .004-.147c-.016-.044-.06-.08-.133-.107a1.43 1.43 0 0 0-.3-.066 4.214 4.214 0 0 0-.504-.025c-.208 0-.384.01-.53.025a2.27 2.27 0 0 0-.356.066.538.538 0 0 0-.211.107.363.363 0 0 0-.103.147l-2.326 6.395a4.249 4.249 0 0 1-.514.998 3.412 3.412 0 0 1-.7.737c-.26.2-.541.352-.848.457a2.992 2.992 0 0 1-.965.156c-.335 0-.619-.05-.853-.152a1.122 1.122 0 0 1-.531-.456c-.12-.202-.177-.457-.168-.768.009-.308.09-.674.243-1.096l2.282-6.27a.191.191 0 0 0 0-.148c-.02-.044-.066-.08-.138-.107a1.456 1.456 0 0 0-.304-.066 4.339 4.339 0 0 0-.508-.025zm79.597 0c-.213 0-.391.01-.535.025a2.222 2.222 0 0 0-.355.065.581.581 0 0 0-.216.107.375.375 0 0 0-.103.149l-2.35 6.46c-.246.678-.365 1.271-.354 1.777.009.507.135.929.378 1.267.244.34.6.593 1.071.76.469.167 1.037.25 1.705.25.71 0 1.373-.093 1.988-.278a5.755 5.755 0 0 0 1.674-.813 5.79 5.79 0 0 0 1.32-1.305 6.97 6.97 0 0 0 .923-1.748l2.317-6.37a.201.201 0 0 0 .004-.149c-.017-.043-.06-.079-.132-.107a1.368 1.368 0 0 0-.3-.065 4.233 4.233 0 0 0-.505-.024c-.207 0-.384.008-.53.024a2.146 2.146 0 0 0-.356.065.564.564 0 0 0-.21.107.375.375 0 0 0-.104.149l-2.326 6.394a4.296 4.296 0 0 1-.514.998 3.441 3.441 0 0 1-.7.738 2.955 2.955 0 0 1-1.814.612 2.15 2.15 0 0 1-.852-.152 1.125 1.125 0 0 1-.532-.455c-.12-.203-.177-.46-.167-.769.008-.308.09-.673.243-1.096l2.28-6.27a.189.189 0 0 0 0-.149c-.018-.043-.065-.079-.136-.107a1.39 1.39 0 0 0-.304-.065 4.349 4.349 0 0 0-.508-.024zm18.448.017c-.198 0-.36.007-.493.02-.13.014-.24.037-.329.07a.648.648 0 0 0-.205.115.363.363 0 0 0-.103.148l-1.814 4.983c-.137.378-.276.775-.42 1.19a50.68 50.68 0 0 0-.398 1.199h-.01c-.019-.22-.038-.438-.064-.657l-.076-.669a21.125 21.125 0 0 0-.093-.681c-.036-.228-.07-.46-.104-.695l-.656-3.882a3.037 3.037 0 0 0-.108-.538.844.844 0 0 0-.191-.34.714.714 0 0 0-.318-.178 1.96 1.96 0 0 0-.505-.052h-1.157a1.118 1.118 0 0 0-1.06.772l-3.473 9.546a.256.256 0 0 0-.014.149c.013.043.049.08.108.11.061.03.15.053.27.07.121.016.276.025.467.025.196 0 .36-.009.494-.025.132-.017.24-.04.324-.07a.573.573 0 0 0 .198-.11.41.41 0 0 0 .097-.149l2.023-5.557a49.006 49.006 0 0 0 .803-2.389h.016a16.744 16.744 0 0 0 .183 1.954l.835 4.966c.038.274.08.497.125.67.048.171.112.308.191.41a.62.62 0 0 0 .31.21c.126.038.284.057.477.057h.917c.105 0 .213-.015.325-.046a1.06 1.06 0 0 0 .316-.143c.097-.066.185-.149.265-.246.08-.099.142-.21.187-.337l3.474-9.547a.244.244 0 0 0 .013-.148c-.011-.043-.046-.082-.102-.115a.7.7 0 0 0-.266-.07 4.23 4.23 0 0 0-.46-.02zm-76.599.033a.923.923 0 0 0-.515.16c-.162.107-.285.28-.374.52l-3.368 9.26c-.087.242-.089.415-.004.522.085.107.217.16.396.16h5.333a.3.3 0 0 0 .153-.046.541.541 0 0 0 .154-.142c.052-.067.102-.153.156-.26.052-.106.107-.239.165-.397.057-.158.098-.292.125-.398a.981.981 0 0 0 .032-.26.213.213 0 0 0-.05-.143.167.167 0 0 0-.12-.045h-3.822l1.09-2.996h3.207c.05 0 .1-.013.151-.041.05-.027.1-.073.151-.136a1.31 1.31 0 0 0 .152-.25c.053-.104.107-.236.164-.394.057-.153.097-.284.122-.39a.847.847 0 0 0 .03-.254c-.003-.063-.02-.11-.05-.14a.163.163 0 0 0-.12-.046h-3.206l.942-2.593h3.79c.05 0 .1-.015.149-.045a.6.6 0 0 0 .15-.144c.052-.065.102-.152.155-.26.053-.105.107-.235.163-.39a3.68 3.68 0 0 0 .128-.406c.024-.105.036-.194.034-.262-.004-.068-.018-.116-.048-.143a.158.158 0 0 0-.115-.041h-5.3zm8.903 0a.918.918 0 0 0-.514.16c-.162.107-.287.28-.374.52L29.86 37.1a.205.205 0 0 0-.005.147c.017.044.06.08.135.107.07.027.174.05.308.066.132.016.302.025.511.025.212 0 .392-.009.534-.025.143-.016.26-.04.352-.066a.581.581 0 0 0 .215-.107.35.35 0 0 0 .107-.147l1.472-4.048h.674a1.3 1.3 0 0 1 .568.108.797.797 0 0 1 .348.315c.084.14.141.313.176.522.034.207.059.445.077.714l.088 2.372a.492.492 0 0 0 .02.168c.017.046.059.086.128.115.067.031.167.05.3.062a10.05 10.05 0 0 0 1.199 0c.163-.011.289-.03.38-.057a.429.429 0 0 0 .195-.103.46.46 0 0 0 .088-.152.894.894 0 0 0 .04-.226c.008-.096.009-.248.003-.455l-.134-2.093a5.156 5.156 0 0 0-.073-.678 2.493 2.493 0 0 0-.155-.534 1.37 1.37 0 0 0-.595-.676 5.24 5.24 0 0 0 1.028-.411c.32-.17.607-.37.866-.6a4.1 4.1 0 0 0 .684-.783 4.51 4.51 0 0 0 .489-.973c.153-.422.226-.795.22-1.121a1.627 1.627 0 0 0-.24-.845c-.15-.238-.37-.43-.66-.578a3.31 3.31 0 0 0-1.039-.313 9.501 9.501 0 0 0-1.159-.057h-2.749zm25.922 0a.919.919 0 0 0-.515.16c-.161.107-.287.28-.374.52l-3.368 9.26c-.087.242-.09.415-.006.522.085.107.218.16.398.16h5.333c.05 0 .1-.015.152-.046a.511.511 0 0 0 .153-.142 1.32 1.32 0 0 0 .157-.26c.053-.106.108-.239.166-.397.058-.158.1-.292.125-.398a.974.974 0 0 0 .03-.26c-.002-.065-.019-.113-.05-.143a.167.167 0 0 0-.118-.045h-3.823l1.09-2.996h3.207c.05 0 .1-.013.15-.041a.506.506 0 0 0 .153-.136c.05-.062.1-.145.152-.25.052-.104.107-.236.165-.394.055-.153.095-.284.12-.39a.855.855 0 0 0 .032-.254c-.004-.063-.022-.11-.052-.14a.165.165 0 0 0-.119-.046h-3.208l.944-2.593h3.79a.294.294 0 0 0 .149-.045.64.64 0 0 0 .15-.144c.05-.065.103-.152.154-.26.054-.105.108-.235.164-.39.06-.163.1-.298.127-.406a.998.998 0 0 0 .034-.262c-.003-.068-.018-.116-.047-.143a.161.161 0 0 0-.116-.041h-5.3zm-45.006 0a.919.919 0 0 0-.514.16c-.162.107-.286.28-.375.521l-3.368 9.26c-.087.24-.09.414-.005.52.085.107.217.161.398.161h2.822c.426 0 .824-.026 1.19-.079a6.58 6.58 0 0 0 1.067-.241c.346-.11.678-.25.994-.419.317-.17.607-.372.877-.606a4.63 4.63 0 0 0 .726-.814c.216-.307.393-.648.53-1.026.132-.36.195-.687.192-.977a1.71 1.71 0 0 0-.172-.758 1.392 1.392 0 0 0-.473-.53 1.968 1.968 0 0 0-.727-.288 3.644 3.644 0 0 0 1.908-1.457c.148-.227.268-.469.363-.726.168-.46.23-.86.19-1.199a1.358 1.358 0 0 0-.404-.842c-.228-.222-.548-.387-.96-.497-.411-.109-.942-.163-1.592-.163h-2.667zm.89 1.617h1.09c.333 0 .589.03.766.09.178.06.312.146.403.26.09.111.137.252.14.422.004.17-.031.36-.109.574-.07.193-.166.373-.289.546a2.046 2.046 0 0 1-1.013.755 2.428 2.428 0 0 1-.788.112h-1.204l1.003-2.76zm19.112.032h.967c.247 0 .437.01.571.026.134.016.249.038.348.064.325.1.524.268.595.51.071.24.042.537-.084.886a2.29 2.29 0 0 1-.343.624 2.158 2.158 0 0 1-.519.481c-.202.134-.43.237-.688.312a3.03 3.03 0 0 1-.844.11h-1.099l1.096-3.013zm-20.69 4.303h1.28c.393 0 .7.035.92.107.22.07.387.171.498.303.11.131.17.294.182.488.012.194-.027.414-.117.66a2.102 2.102 0 0 1-.876 1.088 2.362 2.362 0 0 1-.635.28 2.953 2.953 0 0 1-.791.093h-1.56l1.098-3.02z" fill="#383A41"/></g></svg>