<?xml version="1.0" encoding="UTF-8" standalone="no"?>
<svg
   xmlns:dc="http://purl.org/dc/elements/1.1/"
   xmlns:cc="http://creativecommons.org/ns#"
   xmlns:rdf="http://www.w3.org/1999/02/22-rdf-syntax-ns#"
   xmlns:svg="http://www.w3.org/2000/svg"
   xmlns="http://www.w3.org/2000/svg"
   xmlns:sodipodi="http://sodipodi.sourceforge.net/DTD/sodipodi-0.dtd"
   xmlns:inkscape="http://www.inkscape.org/namespaces/inkscape"
   width="24"
   height="12"
   viewBox="0 0 24 12"
   id="svg3336"
   version="1.1"
   inkscape:version="0.91 r13725"
   sodipodi:docname="stars_small.svg">
  <metadata
     id="metadata3344">
    <rdf:RDF>
      <cc:Work
         rdf:about="">
        <dc:format>image/svg+xml</dc:format>
        <dc:type
           rdf:resource="http://purl.org/dc/dcmitype/StillImage" />
        <dc:title></dc:title>
      </cc:Work>
    </rdf:RDF>
  </metadata>
  <defs
     id="defs3342" />
  <sodipodi:namedview
     pagecolor="#ffffff"
     bordercolor="#666666"
     borderopacity="1"
     objecttolerance="10"
     gridtolerance="10"
     guidetolerance="10"
     inkscape:pageopacity="0"
     inkscape:pageshadow="2"
     inkscape:window-width="1600"
     inkscape:window-height="838"
     id="namedview3340"
     showgrid="false"
     inkscape:zoom="27.625"
     inkscape:cx="22.384512"
     inkscape:cy="12"
     inkscape:window-x="-8"
     inkscape:window-y="-8"
     inkscape:window-maximized="1"
     inkscape:current-layer="svg3336"
     showguides="true"
     inkscape:guide-bbox="true" />
  <path
     d="m 22.663183,4.5780725 -2.754279,-0.259997 c -0.174018,-0.0165 -0.323033,-0.125998 -0.39504,-0.291496 l -0.9851,-2.391469 c -0.158516,-0.394995 -0.720073,-0.394995 -0.876089,0 l -0.978599,2.391469 c -0.06501,0.165998 -0.222023,0.276496 -0.39504,0.291996 l -2.75528,0.258997 c -0.410041,0.039 -0.575058,0.5529933 -0.267527,0.8299893 l 2.073711,1.822476 c 0.135013,0.115999 0.190019,0.290996 0.151015,0.464994 l -0.622563,2.5549672 c -0.09501,0.403994 0.339034,0.73499 0.702571,0.520993 l 2.296233,-1.3484822 c 0.148015,-0.087 0.332033,-0.087 0.480048,0 l 2.296233,1.3484822 c 0.365037,0.213497 0.798581,-0.110999 0.702571,-0.519993 L 20.720986,7.6950318 c -0.04,-0.173998 0.017,-0.347495 0.151015,-0.465994 l 2.07321,-1.822476 c 0.301031,-0.274996 0.127013,-0.7889903 -0.283028,-0.8284893 z m -16.5736803,-2.692465 0.965098,2.339969 c 0.143014,0.329996 0.451545,0.5569933 0.806581,0.5914933 l 2.7167763,0.246996 -2.0382073,1.791477 c -0.269027,0.237997 -0.386539,0.602492 -0.306031,0.957988 l 0.615062,2.5059672 -2.259229,-1.3269832 c -0.149015,-0.088 -0.320032,-0.133998 -0.49305,-0.133998 -0.173017,0 -0.343534,0.046 -0.493049,0.133998 l -2.245228,1.3189832 0.610062,-2.5049672 c 0.08001,-0.353496 -0.04,-0.719991 -0.309032,-0.949988 l -2.030205,-1.784977 2.694273,-0.253996 c 0.365037,-0.033 0.685069,-0.2719973 0.812582,-0.5999933 l 0.953097,-2.332469 m 0,-0.546493 c -0.180019,0 -0.360037,0.0985 -0.437545,0.295996 l -0.977599,2.391969 c -0.06501,0.165998 -0.222522,0.276496 -0.39504,0.291996 l -2.755279,0.258997 c -0.410042,0.039 -0.57505796,0.5529933 -0.267527,0.8299893 l 2.07321,1.822476 c 0.135014,0.115999 0.190019,0.290996 0.151015,0.464994 l -0.622563,2.5549672 c -0.07501,0.316496 0.175018,0.588492 0.462547,0.588492 0.08001,0 0.161516,-0.021 0.240024,-0.0675 l 2.296233,-1.3484822 c 0.07401,-0.0435 0.157516,-0.065 0.240024,-0.065 0.08251,0 0.166517,0.0215 0.240025,0.065 l 2.296733,1.3484822 c 0.08001,0.047 0.162516,0.0675 0.242524,0.0675 0.286029,0 0.535055,-0.267496 0.460047,-0.587492 L 8.7207687,7.6950318 c -0.04,-0.173998 0.017,-0.347495 0.151016,-0.465994 L 10.945495,5.4065618 C 11.246526,5.1315658 11.072508,4.6175715 10.662466,4.5780725 L 7.9086867,4.3180755 c -0.174017,-0.0165 -0.323033,-0.125998 -0.39504,-0.291496 l -0.9851,-2.391469 c -0.08001,-0.197497 -0.260026,-0.295996 -0.439044,-0.295996 z"
     id="path3338"
     inkscape:connector-curvature="0"
     style="fill:#fab400" />
</svg>
