<svg width="124" height="41" viewBox="0 0 124 41" xmlns="http://www.w3.org/2000/svg"><defs><linearGradient x1="-.037%" y1="34.171%" x2="100.006%" y2="34.171%" id="a"><stop stop-color="#20225F" offset="0%"/><stop stop-color="#1A1F61" offset="20%"/><stop stop-color="#172272" offset="41.023%"/><stop stop-color="#152682" offset="59.52%"/><stop stop-color="#12288E" offset="80.208%"/><stop stop-color="#0E2C9A" offset="100%"/></linearGradient></defs><path d="M80.747.062c-8.796 0-16.656 4.56-16.656 12.982 0 9.66 13.94 10.327 13.94 15.18 0 2.043-2.34 3.872-6.34 3.872-5.673 0-9.915-2.556-9.915-2.556l-1.816 8.5s4.886 2.16 11.374 2.16c9.617 0 17.184-4.784 17.184-13.35 0-10.208-14-10.856-14-15.36 0-1.6 1.924-3.354 5.91-3.354 4.5 0 8.172 1.86 8.172 1.86l1.776-8.21S86.38.06 80.746.06zM.275.682l-.213 1.24s3.7.676 7.033 2.027c4.29 1.546 4.597 2.45 5.32 5.25l7.875 30.36h10.557L47.11.68H36.58L26.13 27.115 21.863 4.71C21.473 2.143 19.49.68 17.066.68H.276zm51.07 0l-8.26 38.878h10.043L61.36.682H51.347zm56.02 0c-2.423 0-3.706 1.296-4.647 3.562L88.003 39.56h10.532l2.038-5.886h12.832l1.24 5.886h9.293L115.83.682h-8.466zm1.37 10.503l3.12 14.59h-8.363l5.242-14.59z" fill="url(#a)" fill-rule="evenodd"/></svg>